<mxfile host="Electron" agent="Mozilla/5.0 (Windows NT 10.0; Win64; x64) AppleWebKit/537.36 (KHTML, like Gecko) draw.io/24.7.5 Chrome/126.0.6478.183 Electron/31.3.0 Safari/537.36" version="24.7.5">
  <diagram name="Page-1" id="7e0a89b8-554c-2b80-1dc8-d5c74ca68de4">
    <mxGraphModel dx="1500" dy="899" grid="1" gridSize="10" guides="1" tooltips="1" connect="1" arrows="1" fold="1" page="1" pageScale="1" pageWidth="1100" pageHeight="850" background="none" math="1" shadow="0">
      <root>
        <mxCell id="0" />
        <mxCell id="1" parent="0" />
        <mxCell id="PsptzhxLuVpVTfMJceMe-16" style="edgeStyle=orthogonalEdgeStyle;rounded=0;orthogonalLoop=1;jettySize=auto;html=1;exitX=1;exitY=0.5;exitDx=0;exitDy=0;exitPerimeter=0;endArrow=none;endFill=0;strokeWidth=2;" edge="1" parent="1" source="PsptzhxLuVpVTfMJceMe-83">
          <mxGeometry relative="1" as="geometry">
            <mxPoint x="125" y="490" as="targetPoint" />
          </mxGeometry>
        </mxCell>
        <mxCell id="PsptzhxLuVpVTfMJceMe-1" value="" style="pointerEvents=1;verticalLabelPosition=bottom;shadow=0;dashed=0;align=center;html=1;verticalAlign=top;shape=mxgraph.electrical.resistors.resistor_2;rotation=90;strokeWidth=2;" vertex="1" parent="1">
          <mxGeometry x="75" y="410" width="100" height="20" as="geometry" />
        </mxCell>
        <mxCell id="PsptzhxLuVpVTfMJceMe-2" value="" style="pointerEvents=1;verticalLabelPosition=bottom;shadow=0;dashed=0;align=center;html=1;verticalAlign=top;shape=mxgraph.electrical.resistors.resistor_2;rotation=90;strokeWidth=2;" vertex="1" parent="1">
          <mxGeometry x="75" y="210" width="100" height="20" as="geometry" />
        </mxCell>
        <mxCell id="PsptzhxLuVpVTfMJceMe-10" value="" style="pointerEvents=1;verticalLabelPosition=bottom;shadow=0;dashed=0;align=center;html=1;verticalAlign=top;shape=mxgraph.electrical.signal_sources.source;aspect=fixed;points=[[0.5,0,0],[1,0.5,0],[0.5,1,0],[0,0.5,0]];elSignalType=ac;strokeWidth=2;" vertex="1" parent="1">
          <mxGeometry x="105" y="300" width="40" height="40" as="geometry" />
        </mxCell>
        <mxCell id="PsptzhxLuVpVTfMJceMe-15" style="edgeStyle=orthogonalEdgeStyle;rounded=0;orthogonalLoop=1;jettySize=auto;html=1;exitX=0.5;exitY=0;exitDx=0;exitDy=0;exitPerimeter=0;endArrow=none;endFill=0;strokeWidth=2;" edge="1" parent="1" source="PsptzhxLuVpVTfMJceMe-11">
          <mxGeometry relative="1" as="geometry">
            <mxPoint x="125" y="60" as="targetPoint" />
          </mxGeometry>
        </mxCell>
        <mxCell id="PsptzhxLuVpVTfMJceMe-11" value="" style="pointerEvents=1;verticalLabelPosition=bottom;shadow=0;dashed=0;align=center;html=1;verticalAlign=top;shape=mxgraph.electrical.signal_sources.source;aspect=fixed;points=[[0.5,0,0],[1,0.5,0],[0.5,1,0],[0,0.5,0]];elSignalType=ac;strokeWidth=2;" vertex="1" parent="1">
          <mxGeometry x="105" y="100" width="40" height="40" as="geometry" />
        </mxCell>
        <mxCell id="PsptzhxLuVpVTfMJceMe-12" style="edgeStyle=orthogonalEdgeStyle;rounded=0;orthogonalLoop=1;jettySize=auto;html=1;exitX=0.5;exitY=1;exitDx=0;exitDy=0;exitPerimeter=0;entryX=0;entryY=0.5;entryDx=0;entryDy=0;entryPerimeter=0;endArrow=none;endFill=0;strokeWidth=2;" edge="1" parent="1" source="PsptzhxLuVpVTfMJceMe-11" target="PsptzhxLuVpVTfMJceMe-2">
          <mxGeometry relative="1" as="geometry" />
        </mxCell>
        <mxCell id="PsptzhxLuVpVTfMJceMe-13" style="edgeStyle=orthogonalEdgeStyle;rounded=0;orthogonalLoop=1;jettySize=auto;html=1;exitX=1;exitY=0.5;exitDx=0;exitDy=0;exitPerimeter=0;entryX=0.5;entryY=0;entryDx=0;entryDy=0;entryPerimeter=0;endArrow=none;endFill=0;strokeWidth=2;" edge="1" parent="1" source="PsptzhxLuVpVTfMJceMe-2" target="PsptzhxLuVpVTfMJceMe-10">
          <mxGeometry relative="1" as="geometry" />
        </mxCell>
        <mxCell id="PsptzhxLuVpVTfMJceMe-14" style="edgeStyle=orthogonalEdgeStyle;rounded=0;orthogonalLoop=1;jettySize=auto;html=1;exitX=0.5;exitY=1;exitDx=0;exitDy=0;exitPerimeter=0;entryX=0;entryY=0.5;entryDx=0;entryDy=0;entryPerimeter=0;endArrow=none;endFill=0;strokeWidth=2;" edge="1" parent="1" source="PsptzhxLuVpVTfMJceMe-10" target="PsptzhxLuVpVTfMJceMe-1">
          <mxGeometry relative="1" as="geometry" />
        </mxCell>
        <mxCell id="PsptzhxLuVpVTfMJceMe-22" value="$$R_1$$" style="text;html=1;align=center;verticalAlign=middle;whiteSpace=wrap;rounded=0;fontSize=16;" vertex="1" parent="1">
          <mxGeometry x="135" y="205" width="60" height="30" as="geometry" />
        </mxCell>
        <mxCell id="PsptzhxLuVpVTfMJceMe-23" value="$$R_2$$" style="text;html=1;align=center;verticalAlign=middle;whiteSpace=wrap;rounded=0;fontSize=16;" vertex="1" parent="1">
          <mxGeometry x="135" y="405" width="60" height="30" as="geometry" />
        </mxCell>
        <mxCell id="PsptzhxLuVpVTfMJceMe-24" value="$$\overline{v_1^2}=4kTR_1$$" style="text;html=1;align=center;verticalAlign=middle;whiteSpace=wrap;rounded=0;fontSize=16;" vertex="1" parent="1">
          <mxGeometry x="175" y="105" width="60" height="30" as="geometry" />
        </mxCell>
        <mxCell id="PsptzhxLuVpVTfMJceMe-25" value="$$\overline{v_2^2}=4kTR_2$$" style="text;html=1;align=center;verticalAlign=middle;whiteSpace=wrap;rounded=0;fontSize=16;" vertex="1" parent="1">
          <mxGeometry x="175" y="305" width="60" height="30" as="geometry" />
        </mxCell>
        <mxCell id="PsptzhxLuVpVTfMJceMe-26" value="" style="shape=flexArrow;endArrow=classic;html=1;rounded=0;strokeWidth=2;" edge="1" parent="1">
          <mxGeometry width="50" height="50" relative="1" as="geometry">
            <mxPoint x="310" y="260" as="sourcePoint" />
            <mxPoint x="560" y="260" as="targetPoint" />
          </mxGeometry>
        </mxCell>
        <mxCell id="PsptzhxLuVpVTfMJceMe-29" value="" style="pointerEvents=1;verticalLabelPosition=bottom;shadow=0;dashed=0;align=center;html=1;verticalAlign=top;shape=mxgraph.electrical.resistors.resistor_2;rotation=90;strokeWidth=2;" vertex="1" parent="1">
          <mxGeometry x="600" y="310" width="100" height="20" as="geometry" />
        </mxCell>
        <mxCell id="PsptzhxLuVpVTfMJceMe-31" style="edgeStyle=orthogonalEdgeStyle;rounded=0;orthogonalLoop=1;jettySize=auto;html=1;exitX=0.5;exitY=0;exitDx=0;exitDy=0;exitPerimeter=0;endArrow=none;endFill=0;strokeWidth=2;" edge="1" parent="1" source="PsptzhxLuVpVTfMJceMe-85">
          <mxGeometry relative="1" as="geometry">
            <mxPoint x="650" y="160" as="targetPoint" />
          </mxGeometry>
        </mxCell>
        <mxCell id="PsptzhxLuVpVTfMJceMe-32" value="" style="pointerEvents=1;verticalLabelPosition=bottom;shadow=0;dashed=0;align=center;html=1;verticalAlign=top;shape=mxgraph.electrical.signal_sources.source;aspect=fixed;points=[[0.5,0,0],[1,0.5,0],[0.5,1,0],[0,0.5,0]];elSignalType=ac;strokeWidth=2;" vertex="1" parent="1">
          <mxGeometry x="630" y="200" width="40" height="40" as="geometry" />
        </mxCell>
        <mxCell id="PsptzhxLuVpVTfMJceMe-33" style="edgeStyle=orthogonalEdgeStyle;rounded=0;orthogonalLoop=1;jettySize=auto;html=1;exitX=0.5;exitY=1;exitDx=0;exitDy=0;exitPerimeter=0;entryX=0;entryY=0.5;entryDx=0;entryDy=0;entryPerimeter=0;endArrow=none;endFill=0;strokeWidth=2;" edge="1" parent="1" source="PsptzhxLuVpVTfMJceMe-32" target="PsptzhxLuVpVTfMJceMe-29">
          <mxGeometry relative="1" as="geometry" />
        </mxCell>
        <mxCell id="PsptzhxLuVpVTfMJceMe-34" style="edgeStyle=orthogonalEdgeStyle;rounded=0;orthogonalLoop=1;jettySize=auto;html=1;exitX=1;exitY=0.5;exitDx=0;exitDy=0;exitPerimeter=0;entryX=0.5;entryY=0;entryDx=0;entryDy=0;entryPerimeter=0;endArrow=none;endFill=0;strokeWidth=2;" edge="1" parent="1" source="PsptzhxLuVpVTfMJceMe-29">
          <mxGeometry relative="1" as="geometry">
            <mxPoint x="650" y="400" as="targetPoint" />
          </mxGeometry>
        </mxCell>
        <mxCell id="PsptzhxLuVpVTfMJceMe-36" value="$$R=R_1+R_2$$" style="text;html=1;align=center;verticalAlign=middle;whiteSpace=wrap;rounded=0;fontSize=16;" vertex="1" parent="1">
          <mxGeometry x="710" y="310" width="60" height="30" as="geometry" />
        </mxCell>
        <mxCell id="PsptzhxLuVpVTfMJceMe-38" value="$$\overline{v^2}=\overline{v_1^2}+\overline{v_2^2}=4kT(R_1+R_2)$$" style="text;html=1;align=center;verticalAlign=middle;whiteSpace=wrap;rounded=0;fontSize=16;" vertex="1" parent="1">
          <mxGeometry x="780" y="205" width="60" height="30" as="geometry" />
        </mxCell>
        <mxCell id="PsptzhxLuVpVTfMJceMe-63" value="" style="pointerEvents=1;verticalLabelPosition=bottom;shadow=0;dashed=0;align=center;html=1;verticalAlign=top;shape=mxgraph.electrical.resistors.resistor_2;rotation=90;strokeWidth=2;" vertex="1" parent="1">
          <mxGeometry x="190" y="770" width="100" height="20" as="geometry" />
        </mxCell>
        <mxCell id="PsptzhxLuVpVTfMJceMe-64" style="edgeStyle=orthogonalEdgeStyle;rounded=0;orthogonalLoop=1;jettySize=auto;html=1;exitX=0.5;exitY=0;exitDx=0;exitDy=0;exitPerimeter=0;endArrow=none;endFill=0;strokeWidth=2;" edge="1" parent="1" source="PsptzhxLuVpVTfMJceMe-65">
          <mxGeometry relative="1" as="geometry">
            <mxPoint x="240" y="620" as="targetPoint" />
          </mxGeometry>
        </mxCell>
        <mxCell id="PsptzhxLuVpVTfMJceMe-65" value="" style="pointerEvents=1;verticalLabelPosition=bottom;shadow=0;dashed=0;align=center;html=1;verticalAlign=top;shape=mxgraph.electrical.signal_sources.source;aspect=fixed;points=[[0.5,0,0],[1,0.5,0],[0.5,1,0],[0,0.5,0]];elSignalType=ac;strokeWidth=2;" vertex="1" parent="1">
          <mxGeometry x="220" y="660" width="40" height="40" as="geometry" />
        </mxCell>
        <mxCell id="PsptzhxLuVpVTfMJceMe-66" style="edgeStyle=orthogonalEdgeStyle;rounded=0;orthogonalLoop=1;jettySize=auto;html=1;exitX=0.5;exitY=1;exitDx=0;exitDy=0;exitPerimeter=0;entryX=0;entryY=0.5;entryDx=0;entryDy=0;entryPerimeter=0;endArrow=none;endFill=0;strokeWidth=2;" edge="1" parent="1" source="PsptzhxLuVpVTfMJceMe-65" target="PsptzhxLuVpVTfMJceMe-63">
          <mxGeometry relative="1" as="geometry" />
        </mxCell>
        <mxCell id="PsptzhxLuVpVTfMJceMe-67" style="edgeStyle=orthogonalEdgeStyle;rounded=0;orthogonalLoop=1;jettySize=auto;html=1;exitX=1;exitY=0.5;exitDx=0;exitDy=0;exitPerimeter=0;entryX=0.5;entryY=0;entryDx=0;entryDy=0;entryPerimeter=0;endArrow=none;endFill=0;strokeWidth=2;" edge="1" parent="1" source="PsptzhxLuVpVTfMJceMe-89">
          <mxGeometry relative="1" as="geometry">
            <mxPoint x="240" y="860" as="targetPoint" />
          </mxGeometry>
        </mxCell>
        <mxCell id="PsptzhxLuVpVTfMJceMe-68" value="$$R$$" style="text;html=1;align=center;verticalAlign=middle;whiteSpace=wrap;rounded=0;fontSize=16;" vertex="1" parent="1">
          <mxGeometry x="235" y="765" width="60" height="30" as="geometry" />
        </mxCell>
        <mxCell id="PsptzhxLuVpVTfMJceMe-69" value="$$\overline{v^2}=4kTR$$" style="text;html=1;align=center;verticalAlign=middle;whiteSpace=wrap;rounded=0;fontSize=16;" vertex="1" parent="1">
          <mxGeometry x="290" y="665" width="60" height="30" as="geometry" />
        </mxCell>
        <mxCell id="PsptzhxLuVpVTfMJceMe-71" value="" style="shape=flexArrow;endArrow=classic;html=1;rounded=0;strokeWidth=2;startArrow=block;" edge="1" parent="1">
          <mxGeometry width="50" height="50" relative="1" as="geometry">
            <mxPoint x="380" y="760" as="sourcePoint" />
            <mxPoint x="500" y="760" as="targetPoint" />
          </mxGeometry>
        </mxCell>
        <mxCell id="PsptzhxLuVpVTfMJceMe-72" value="" style="pointerEvents=1;verticalLabelPosition=bottom;shadow=0;dashed=0;align=center;html=1;verticalAlign=top;shape=mxgraph.electrical.resistors.resistor_2;rotation=90;strokeWidth=2;" vertex="1" parent="1">
          <mxGeometry x="535" y="750" width="100" height="20" as="geometry" />
        </mxCell>
        <mxCell id="PsptzhxLuVpVTfMJceMe-75" style="edgeStyle=orthogonalEdgeStyle;rounded=0;orthogonalLoop=1;jettySize=auto;html=1;entryX=0;entryY=0.5;entryDx=0;entryDy=0;entryPerimeter=0;endArrow=none;endFill=0;strokeWidth=2;exitX=0.5;exitY=1;exitDx=0;exitDy=0;" edge="1" parent="1" source="PsptzhxLuVpVTfMJceMe-105" target="PsptzhxLuVpVTfMJceMe-72">
          <mxGeometry relative="1" as="geometry">
            <mxPoint x="585" y="680" as="sourcePoint" />
          </mxGeometry>
        </mxCell>
        <mxCell id="PsptzhxLuVpVTfMJceMe-76" style="edgeStyle=orthogonalEdgeStyle;rounded=0;orthogonalLoop=1;jettySize=auto;html=1;exitX=1;exitY=0.5;exitDx=0;exitDy=0;exitPerimeter=0;entryX=0.5;entryY=0;entryDx=0;entryDy=0;entryPerimeter=0;endArrow=none;endFill=0;strokeWidth=2;" edge="1" parent="1" source="PsptzhxLuVpVTfMJceMe-91">
          <mxGeometry relative="1" as="geometry">
            <mxPoint x="585" y="840" as="targetPoint" />
          </mxGeometry>
        </mxCell>
        <mxCell id="PsptzhxLuVpVTfMJceMe-77" value="$$R$$" style="text;html=1;align=center;verticalAlign=middle;whiteSpace=wrap;rounded=0;fontSize=16;" vertex="1" parent="1">
          <mxGeometry x="585" y="745" width="60" height="30" as="geometry" />
        </mxCell>
        <mxCell id="PsptzhxLuVpVTfMJceMe-78" value="$$\overline{i^2}=\frac{4kT}{R}$$" style="text;html=1;align=center;verticalAlign=middle;whiteSpace=wrap;rounded=0;fontSize=16;" vertex="1" parent="1">
          <mxGeometry x="730" y="745" width="60" height="30" as="geometry" />
        </mxCell>
        <mxCell id="PsptzhxLuVpVTfMJceMe-82" value="" style="ellipse;whiteSpace=wrap;html=1;aspect=fixed;strokeWidth=2;" vertex="1" parent="1">
          <mxGeometry x="120" y="50" width="10" height="10" as="geometry" />
        </mxCell>
        <mxCell id="PsptzhxLuVpVTfMJceMe-84" value="" style="edgeStyle=orthogonalEdgeStyle;rounded=0;orthogonalLoop=1;jettySize=auto;html=1;exitX=1;exitY=0.5;exitDx=0;exitDy=0;exitPerimeter=0;endArrow=none;endFill=0;strokeWidth=2;" edge="1" parent="1" source="PsptzhxLuVpVTfMJceMe-1" target="PsptzhxLuVpVTfMJceMe-83">
          <mxGeometry relative="1" as="geometry">
            <mxPoint x="125" y="490" as="targetPoint" />
            <mxPoint x="125" y="470" as="sourcePoint" />
          </mxGeometry>
        </mxCell>
        <mxCell id="PsptzhxLuVpVTfMJceMe-83" value="" style="ellipse;whiteSpace=wrap;html=1;aspect=fixed;strokeWidth=2;" vertex="1" parent="1">
          <mxGeometry x="120" y="490" width="10" height="10" as="geometry" />
        </mxCell>
        <mxCell id="PsptzhxLuVpVTfMJceMe-86" value="" style="edgeStyle=orthogonalEdgeStyle;rounded=0;orthogonalLoop=1;jettySize=auto;html=1;exitX=0.5;exitY=0;exitDx=0;exitDy=0;exitPerimeter=0;endArrow=none;endFill=0;strokeWidth=2;" edge="1" parent="1" source="PsptzhxLuVpVTfMJceMe-32" target="PsptzhxLuVpVTfMJceMe-85">
          <mxGeometry relative="1" as="geometry">
            <mxPoint x="650" y="160" as="targetPoint" />
            <mxPoint x="650" y="200" as="sourcePoint" />
          </mxGeometry>
        </mxCell>
        <mxCell id="PsptzhxLuVpVTfMJceMe-85" value="" style="ellipse;whiteSpace=wrap;html=1;aspect=fixed;strokeWidth=2;" vertex="1" parent="1">
          <mxGeometry x="645" y="150" width="10" height="10" as="geometry" />
        </mxCell>
        <mxCell id="PsptzhxLuVpVTfMJceMe-87" value="" style="ellipse;whiteSpace=wrap;html=1;aspect=fixed;strokeWidth=2;" vertex="1" parent="1">
          <mxGeometry x="645" y="400" width="10" height="10" as="geometry" />
        </mxCell>
        <mxCell id="PsptzhxLuVpVTfMJceMe-88" value="" style="ellipse;whiteSpace=wrap;html=1;aspect=fixed;strokeWidth=2;" vertex="1" parent="1">
          <mxGeometry x="235" y="610" width="10" height="10" as="geometry" />
        </mxCell>
        <mxCell id="PsptzhxLuVpVTfMJceMe-90" value="" style="edgeStyle=orthogonalEdgeStyle;rounded=0;orthogonalLoop=1;jettySize=auto;html=1;exitX=1;exitY=0.5;exitDx=0;exitDy=0;exitPerimeter=0;entryX=0.5;entryY=0;entryDx=0;entryDy=0;entryPerimeter=0;endArrow=none;endFill=0;strokeWidth=2;" edge="1" parent="1" source="PsptzhxLuVpVTfMJceMe-63" target="PsptzhxLuVpVTfMJceMe-89">
          <mxGeometry relative="1" as="geometry">
            <mxPoint x="240" y="860" as="targetPoint" />
            <mxPoint x="240" y="830" as="sourcePoint" />
          </mxGeometry>
        </mxCell>
        <mxCell id="PsptzhxLuVpVTfMJceMe-89" value="" style="ellipse;whiteSpace=wrap;html=1;aspect=fixed;strokeWidth=2;" vertex="1" parent="1">
          <mxGeometry x="235" y="860" width="10" height="10" as="geometry" />
        </mxCell>
        <mxCell id="PsptzhxLuVpVTfMJceMe-92" value="" style="pointerEvents=1;verticalLabelPosition=bottom;shadow=0;dashed=0;align=center;html=1;verticalAlign=top;shape=mxgraph.electrical.signal_sources.source;aspect=fixed;points=[[0.5,0,0],[1,0.5,0],[0.5,1,0],[0,0.5,0]];elSignalType=dc1;rotation=-90;strokeWidth=2;" vertex="1" parent="1">
          <mxGeometry x="660" y="740" width="40" height="40" as="geometry" />
        </mxCell>
        <mxCell id="PsptzhxLuVpVTfMJceMe-99" style="edgeStyle=orthogonalEdgeStyle;rounded=0;orthogonalLoop=1;jettySize=auto;html=1;exitX=1;exitY=0.5;exitDx=0;exitDy=0;exitPerimeter=0;entryX=0;entryY=0.5;entryDx=0;entryDy=0;entryPerimeter=0;endArrow=none;endFill=0;strokeWidth=2;" edge="1" parent="1" source="PsptzhxLuVpVTfMJceMe-92" target="PsptzhxLuVpVTfMJceMe-72">
          <mxGeometry relative="1" as="geometry">
            <Array as="points">
              <mxPoint x="680" y="700" />
              <mxPoint x="585" y="700" />
            </Array>
          </mxGeometry>
        </mxCell>
        <mxCell id="PsptzhxLuVpVTfMJceMe-101" style="edgeStyle=orthogonalEdgeStyle;rounded=0;orthogonalLoop=1;jettySize=auto;html=1;exitX=0;exitY=0.5;exitDx=0;exitDy=0;exitPerimeter=0;entryX=1;entryY=0.5;entryDx=0;entryDy=0;entryPerimeter=0;endArrow=none;endFill=0;strokeWidth=2;" edge="1" parent="1" source="PsptzhxLuVpVTfMJceMe-92" target="PsptzhxLuVpVTfMJceMe-72">
          <mxGeometry relative="1" as="geometry">
            <Array as="points">
              <mxPoint x="680" y="820" />
              <mxPoint x="585" y="820" />
            </Array>
          </mxGeometry>
        </mxCell>
        <mxCell id="PsptzhxLuVpVTfMJceMe-104" value="" style="edgeStyle=orthogonalEdgeStyle;rounded=0;orthogonalLoop=1;jettySize=auto;html=1;exitX=1;exitY=0.5;exitDx=0;exitDy=0;exitPerimeter=0;entryX=0.5;entryY=0;entryDx=0;entryDy=0;entryPerimeter=0;endArrow=none;endFill=0;strokeWidth=2;" edge="1" parent="1" source="PsptzhxLuVpVTfMJceMe-72" target="PsptzhxLuVpVTfMJceMe-91">
          <mxGeometry relative="1" as="geometry">
            <mxPoint x="585" y="840" as="targetPoint" />
            <mxPoint x="585" y="810" as="sourcePoint" />
          </mxGeometry>
        </mxCell>
        <mxCell id="PsptzhxLuVpVTfMJceMe-91" value="" style="ellipse;whiteSpace=wrap;html=1;aspect=fixed;strokeWidth=2;" vertex="1" parent="1">
          <mxGeometry x="580" y="840" width="10" height="10" as="geometry" />
        </mxCell>
        <mxCell id="PsptzhxLuVpVTfMJceMe-105" value="" style="ellipse;whiteSpace=wrap;html=1;aspect=fixed;strokeWidth=2;" vertex="1" parent="1">
          <mxGeometry x="580" y="660" width="10" height="10" as="geometry" />
        </mxCell>
        <mxCell id="PsptzhxLuVpVTfMJceMe-107" value="" style="pointerEvents=1;verticalLabelPosition=bottom;shadow=0;dashed=0;align=center;html=1;verticalAlign=top;shape=mxgraph.electrical.resistors.resistor_2;rotation=90;strokeWidth=2;" vertex="1" parent="1">
          <mxGeometry x="1190" y="280" width="100" height="20" as="geometry" />
        </mxCell>
        <mxCell id="PsptzhxLuVpVTfMJceMe-108" style="edgeStyle=orthogonalEdgeStyle;rounded=0;orthogonalLoop=1;jettySize=auto;html=1;entryX=0;entryY=0.5;entryDx=0;entryDy=0;entryPerimeter=0;endArrow=none;endFill=0;strokeWidth=2;exitX=0.5;exitY=1;exitDx=0;exitDy=0;" edge="1" parent="1" source="PsptzhxLuVpVTfMJceMe-117" target="PsptzhxLuVpVTfMJceMe-107">
          <mxGeometry relative="1" as="geometry">
            <mxPoint x="1240" y="210" as="sourcePoint" />
          </mxGeometry>
        </mxCell>
        <mxCell id="PsptzhxLuVpVTfMJceMe-109" style="edgeStyle=orthogonalEdgeStyle;rounded=0;orthogonalLoop=1;jettySize=auto;html=1;exitX=1;exitY=0.5;exitDx=0;exitDy=0;exitPerimeter=0;entryX=0.5;entryY=0;entryDx=0;entryDy=0;entryPerimeter=0;endArrow=none;endFill=0;strokeWidth=2;" edge="1" parent="1" source="PsptzhxLuVpVTfMJceMe-116">
          <mxGeometry relative="1" as="geometry">
            <mxPoint x="1240" y="370" as="targetPoint" />
          </mxGeometry>
        </mxCell>
        <mxCell id="PsptzhxLuVpVTfMJceMe-110" value="$$R_1$$" style="text;html=1;align=center;verticalAlign=middle;whiteSpace=wrap;rounded=0;fontSize=16;" vertex="1" parent="1">
          <mxGeometry x="1240" y="275" width="60" height="30" as="geometry" />
        </mxCell>
        <mxCell id="PsptzhxLuVpVTfMJceMe-111" value="$$\overline{i_1^2}=\frac{4kT}{R_1}$$" style="text;html=1;align=center;verticalAlign=middle;whiteSpace=wrap;rounded=0;fontSize=16;" vertex="1" parent="1">
          <mxGeometry x="1355" y="320" width="60" height="30" as="geometry" />
        </mxCell>
        <mxCell id="PsptzhxLuVpVTfMJceMe-112" value="" style="pointerEvents=1;verticalLabelPosition=bottom;shadow=0;dashed=0;align=center;html=1;verticalAlign=top;shape=mxgraph.electrical.signal_sources.source;aspect=fixed;points=[[0.5,0,0],[1,0.5,0],[0.5,1,0],[0,0.5,0]];elSignalType=dc1;rotation=-90;strokeWidth=2;" vertex="1" parent="1">
          <mxGeometry x="1315" y="270" width="40" height="40" as="geometry" />
        </mxCell>
        <mxCell id="PsptzhxLuVpVTfMJceMe-113" style="edgeStyle=orthogonalEdgeStyle;rounded=0;orthogonalLoop=1;jettySize=auto;html=1;exitX=1;exitY=0.5;exitDx=0;exitDy=0;exitPerimeter=0;entryX=0;entryY=0.5;entryDx=0;entryDy=0;entryPerimeter=0;endArrow=none;endFill=0;strokeWidth=2;" edge="1" parent="1" source="PsptzhxLuVpVTfMJceMe-112" target="PsptzhxLuVpVTfMJceMe-107">
          <mxGeometry relative="1" as="geometry">
            <Array as="points">
              <mxPoint x="1335" y="230" />
              <mxPoint x="1240" y="230" />
            </Array>
          </mxGeometry>
        </mxCell>
        <mxCell id="PsptzhxLuVpVTfMJceMe-114" style="edgeStyle=orthogonalEdgeStyle;rounded=0;orthogonalLoop=1;jettySize=auto;html=1;exitX=0;exitY=0.5;exitDx=0;exitDy=0;exitPerimeter=0;entryX=1;entryY=0.5;entryDx=0;entryDy=0;entryPerimeter=0;endArrow=none;endFill=0;strokeWidth=2;" edge="1" parent="1" source="PsptzhxLuVpVTfMJceMe-112" target="PsptzhxLuVpVTfMJceMe-107">
          <mxGeometry relative="1" as="geometry">
            <Array as="points">
              <mxPoint x="1335" y="350" />
              <mxPoint x="1240" y="350" />
            </Array>
          </mxGeometry>
        </mxCell>
        <mxCell id="PsptzhxLuVpVTfMJceMe-115" value="" style="edgeStyle=orthogonalEdgeStyle;rounded=0;orthogonalLoop=1;jettySize=auto;html=1;exitX=1;exitY=0.5;exitDx=0;exitDy=0;exitPerimeter=0;entryX=0.5;entryY=0;entryDx=0;entryDy=0;entryPerimeter=0;endArrow=none;endFill=0;strokeWidth=2;" edge="1" parent="1" source="PsptzhxLuVpVTfMJceMe-107" target="PsptzhxLuVpVTfMJceMe-116">
          <mxGeometry relative="1" as="geometry">
            <mxPoint x="1240" y="370" as="targetPoint" />
            <mxPoint x="1240" y="340" as="sourcePoint" />
          </mxGeometry>
        </mxCell>
        <mxCell id="PsptzhxLuVpVTfMJceMe-116" value="" style="ellipse;whiteSpace=wrap;html=1;aspect=fixed;strokeWidth=2;" vertex="1" parent="1">
          <mxGeometry x="1235" y="370" width="10" height="10" as="geometry" />
        </mxCell>
        <mxCell id="PsptzhxLuVpVTfMJceMe-117" value="" style="ellipse;whiteSpace=wrap;html=1;aspect=fixed;strokeWidth=2;" vertex="1" parent="1">
          <mxGeometry x="1235" y="190" width="10" height="10" as="geometry" />
        </mxCell>
        <mxCell id="PsptzhxLuVpVTfMJceMe-119" value="" style="pointerEvents=1;verticalLabelPosition=bottom;shadow=0;dashed=0;align=center;html=1;verticalAlign=top;shape=mxgraph.electrical.resistors.resistor_2;rotation=90;strokeWidth=2;" vertex="1" parent="1">
          <mxGeometry x="1110" y="280" width="100" height="20" as="geometry" />
        </mxCell>
        <mxCell id="PsptzhxLuVpVTfMJceMe-120" style="edgeStyle=orthogonalEdgeStyle;rounded=0;orthogonalLoop=1;jettySize=auto;html=1;exitX=1;exitY=0.5;exitDx=0;exitDy=0;exitPerimeter=0;entryX=1;entryY=0.5;entryDx=0;entryDy=0;entryPerimeter=0;strokeWidth=2;endArrow=none;endFill=0;" edge="1" parent="1" source="PsptzhxLuVpVTfMJceMe-119" target="PsptzhxLuVpVTfMJceMe-107">
          <mxGeometry relative="1" as="geometry">
            <Array as="points">
              <mxPoint x="1160" y="350" />
              <mxPoint x="1240" y="350" />
            </Array>
          </mxGeometry>
        </mxCell>
        <mxCell id="PsptzhxLuVpVTfMJceMe-121" style="edgeStyle=orthogonalEdgeStyle;rounded=0;orthogonalLoop=1;jettySize=auto;html=1;exitX=0;exitY=0.5;exitDx=0;exitDy=0;exitPerimeter=0;entryX=0;entryY=0.5;entryDx=0;entryDy=0;entryPerimeter=0;strokeWidth=2;endArrow=none;endFill=0;" edge="1" parent="1" source="PsptzhxLuVpVTfMJceMe-119" target="PsptzhxLuVpVTfMJceMe-107">
          <mxGeometry relative="1" as="geometry">
            <Array as="points">
              <mxPoint x="1160" y="230" />
              <mxPoint x="1240" y="230" />
            </Array>
          </mxGeometry>
        </mxCell>
        <mxCell id="PsptzhxLuVpVTfMJceMe-122" value="" style="pointerEvents=1;verticalLabelPosition=bottom;shadow=0;dashed=0;align=center;html=1;verticalAlign=top;shape=mxgraph.electrical.signal_sources.source;aspect=fixed;points=[[0.5,0,0],[1,0.5,0],[0.5,1,0],[0,0.5,0]];elSignalType=dc1;rotation=-90;strokeWidth=2;" vertex="1" parent="1">
          <mxGeometry x="1050" y="270" width="40" height="40" as="geometry" />
        </mxCell>
        <mxCell id="PsptzhxLuVpVTfMJceMe-123" style="edgeStyle=orthogonalEdgeStyle;rounded=0;orthogonalLoop=1;jettySize=auto;html=1;exitX=1;exitY=0.5;exitDx=0;exitDy=0;exitPerimeter=0;entryX=0;entryY=0.5;entryDx=0;entryDy=0;entryPerimeter=0;strokeWidth=2;endArrow=none;endFill=0;" edge="1" parent="1" source="PsptzhxLuVpVTfMJceMe-122" target="PsptzhxLuVpVTfMJceMe-119">
          <mxGeometry relative="1" as="geometry">
            <Array as="points">
              <mxPoint x="1070" y="230" />
              <mxPoint x="1160" y="230" />
            </Array>
          </mxGeometry>
        </mxCell>
        <mxCell id="PsptzhxLuVpVTfMJceMe-124" style="edgeStyle=orthogonalEdgeStyle;rounded=0;orthogonalLoop=1;jettySize=auto;html=1;exitX=0;exitY=0.5;exitDx=0;exitDy=0;exitPerimeter=0;entryX=1;entryY=0.5;entryDx=0;entryDy=0;entryPerimeter=0;strokeWidth=2;endArrow=none;endFill=0;" edge="1" parent="1" source="PsptzhxLuVpVTfMJceMe-122" target="PsptzhxLuVpVTfMJceMe-119">
          <mxGeometry relative="1" as="geometry">
            <Array as="points">
              <mxPoint x="1070" y="350" />
              <mxPoint x="1160" y="350" />
            </Array>
          </mxGeometry>
        </mxCell>
        <mxCell id="PsptzhxLuVpVTfMJceMe-125" value="$$R_2$$" style="text;html=1;align=center;verticalAlign=middle;whiteSpace=wrap;rounded=0;fontSize=16;" vertex="1" parent="1">
          <mxGeometry x="1100" y="275" width="60" height="30" as="geometry" />
        </mxCell>
        <mxCell id="PsptzhxLuVpVTfMJceMe-126" value="$$\overline{i_2^2}=\frac{4kT}{R_2}$$" style="text;html=1;align=center;verticalAlign=middle;whiteSpace=wrap;rounded=0;fontSize=16;" vertex="1" parent="1">
          <mxGeometry x="990" y="320" width="60" height="30" as="geometry" />
        </mxCell>
        <mxCell id="PsptzhxLuVpVTfMJceMe-127" value="" style="shape=flexArrow;endArrow=classic;html=1;rounded=0;strokeWidth=2;" edge="1" parent="1">
          <mxGeometry width="50" height="50" relative="1" as="geometry">
            <mxPoint x="1400" y="289.58" as="sourcePoint" />
            <mxPoint x="1520" y="289.58" as="targetPoint" />
          </mxGeometry>
        </mxCell>
        <mxCell id="PsptzhxLuVpVTfMJceMe-140" value="" style="pointerEvents=1;verticalLabelPosition=bottom;shadow=0;dashed=0;align=center;html=1;verticalAlign=top;shape=mxgraph.electrical.resistors.resistor_2;rotation=90;strokeWidth=2;" vertex="1" parent="1">
          <mxGeometry x="1523" y="280" width="100" height="20" as="geometry" />
        </mxCell>
        <mxCell id="PsptzhxLuVpVTfMJceMe-141" style="edgeStyle=orthogonalEdgeStyle;rounded=0;orthogonalLoop=1;jettySize=auto;html=1;entryX=0;entryY=0.5;entryDx=0;entryDy=0;entryPerimeter=0;endArrow=none;endFill=0;strokeWidth=2;exitX=0.5;exitY=1;exitDx=0;exitDy=0;" edge="1" parent="1" source="PsptzhxLuVpVTfMJceMe-150" target="PsptzhxLuVpVTfMJceMe-140">
          <mxGeometry relative="1" as="geometry">
            <mxPoint x="1573" y="210" as="sourcePoint" />
          </mxGeometry>
        </mxCell>
        <mxCell id="PsptzhxLuVpVTfMJceMe-142" style="edgeStyle=orthogonalEdgeStyle;rounded=0;orthogonalLoop=1;jettySize=auto;html=1;exitX=1;exitY=0.5;exitDx=0;exitDy=0;exitPerimeter=0;entryX=0.5;entryY=0;entryDx=0;entryDy=0;entryPerimeter=0;endArrow=none;endFill=0;strokeWidth=2;" edge="1" parent="1" source="PsptzhxLuVpVTfMJceMe-149">
          <mxGeometry relative="1" as="geometry">
            <mxPoint x="1573" y="370" as="targetPoint" />
          </mxGeometry>
        </mxCell>
        <mxCell id="PsptzhxLuVpVTfMJceMe-143" value="$$R=R_1+R_2$$" style="text;html=1;align=center;verticalAlign=middle;whiteSpace=wrap;rounded=0;fontSize=16;" vertex="1" parent="1">
          <mxGeometry x="1600" y="320" width="60" height="30" as="geometry" />
        </mxCell>
        <mxCell id="PsptzhxLuVpVTfMJceMe-144" value="$$\overline{i^2}=\overline{i_1^2}+\overline{i_2^2}=\frac{4kT}{R}$$" style="text;html=1;align=center;verticalAlign=middle;whiteSpace=wrap;rounded=0;fontSize=16;" vertex="1" parent="1">
          <mxGeometry x="1772" y="240" width="60" height="30" as="geometry" />
        </mxCell>
        <mxCell id="PsptzhxLuVpVTfMJceMe-145" value="" style="pointerEvents=1;verticalLabelPosition=bottom;shadow=0;dashed=0;align=center;html=1;verticalAlign=top;shape=mxgraph.electrical.signal_sources.source;aspect=fixed;points=[[0.5,0,0],[1,0.5,0],[0.5,1,0],[0,0.5,0]];elSignalType=dc1;rotation=-90;strokeWidth=2;" vertex="1" parent="1">
          <mxGeometry x="1680" y="270" width="40" height="40" as="geometry" />
        </mxCell>
        <mxCell id="PsptzhxLuVpVTfMJceMe-146" style="edgeStyle=orthogonalEdgeStyle;rounded=0;orthogonalLoop=1;jettySize=auto;html=1;exitX=1;exitY=0.5;exitDx=0;exitDy=0;exitPerimeter=0;entryX=0;entryY=0.5;entryDx=0;entryDy=0;entryPerimeter=0;endArrow=none;endFill=0;strokeWidth=2;" edge="1" parent="1" source="PsptzhxLuVpVTfMJceMe-145" target="PsptzhxLuVpVTfMJceMe-140">
          <mxGeometry relative="1" as="geometry">
            <Array as="points">
              <mxPoint x="1700" y="230" />
              <mxPoint x="1573" y="230" />
            </Array>
          </mxGeometry>
        </mxCell>
        <mxCell id="PsptzhxLuVpVTfMJceMe-147" style="edgeStyle=orthogonalEdgeStyle;rounded=0;orthogonalLoop=1;jettySize=auto;html=1;exitX=0;exitY=0.5;exitDx=0;exitDy=0;exitPerimeter=0;entryX=1;entryY=0.5;entryDx=0;entryDy=0;entryPerimeter=0;endArrow=none;endFill=0;strokeWidth=2;" edge="1" parent="1" source="PsptzhxLuVpVTfMJceMe-145" target="PsptzhxLuVpVTfMJceMe-140">
          <mxGeometry relative="1" as="geometry">
            <Array as="points">
              <mxPoint x="1700" y="350" />
              <mxPoint x="1573" y="350" />
            </Array>
          </mxGeometry>
        </mxCell>
        <mxCell id="PsptzhxLuVpVTfMJceMe-148" value="" style="edgeStyle=orthogonalEdgeStyle;rounded=0;orthogonalLoop=1;jettySize=auto;html=1;exitX=1;exitY=0.5;exitDx=0;exitDy=0;exitPerimeter=0;entryX=0.5;entryY=0;entryDx=0;entryDy=0;entryPerimeter=0;endArrow=none;endFill=0;strokeWidth=2;" edge="1" parent="1" source="PsptzhxLuVpVTfMJceMe-140" target="PsptzhxLuVpVTfMJceMe-149">
          <mxGeometry relative="1" as="geometry">
            <mxPoint x="1573" y="370" as="targetPoint" />
            <mxPoint x="1573" y="340" as="sourcePoint" />
          </mxGeometry>
        </mxCell>
        <mxCell id="PsptzhxLuVpVTfMJceMe-149" value="" style="ellipse;whiteSpace=wrap;html=1;aspect=fixed;strokeWidth=2;" vertex="1" parent="1">
          <mxGeometry x="1568" y="370" width="10" height="10" as="geometry" />
        </mxCell>
        <mxCell id="PsptzhxLuVpVTfMJceMe-150" value="" style="ellipse;whiteSpace=wrap;html=1;aspect=fixed;strokeWidth=2;" vertex="1" parent="1">
          <mxGeometry x="1568" y="190" width="10" height="10" as="geometry" />
        </mxCell>
        <mxCell id="PsptzhxLuVpVTfMJceMe-153" style="edgeStyle=orthogonalEdgeStyle;rounded=0;orthogonalLoop=1;jettySize=auto;html=1;exitX=0;exitY=0.5;exitDx=0;exitDy=0;exitPerimeter=0;strokeWidth=2;endArrow=none;endFill=0;" edge="1" parent="1" source="PsptzhxLuVpVTfMJceMe-152">
          <mxGeometry relative="1" as="geometry">
            <mxPoint x="238" y="1010" as="targetPoint" />
            <Array as="points">
              <mxPoint x="237.5" y="1010" />
            </Array>
          </mxGeometry>
        </mxCell>
        <mxCell id="PsptzhxLuVpVTfMJceMe-154" style="edgeStyle=orthogonalEdgeStyle;rounded=0;orthogonalLoop=1;jettySize=auto;html=1;exitX=1;exitY=0.5;exitDx=0;exitDy=0;exitPerimeter=0;strokeWidth=2;endArrow=none;endFill=0;" edge="1" parent="1" source="PsptzhxLuVpVTfMJceMe-152">
          <mxGeometry relative="1" as="geometry">
            <mxPoint x="238" y="1190" as="targetPoint" />
            <Array as="points">
              <mxPoint x="237.5" y="1190" />
            </Array>
          </mxGeometry>
        </mxCell>
        <mxCell id="PsptzhxLuVpVTfMJceMe-152" value="" style="pointerEvents=1;fillColor=strokeColor;verticalLabelPosition=bottom;shadow=0;dashed=0;align=center;html=1;verticalAlign=top;shape=mxgraph.electrical.diodes.diode;rotation=90;strokeColor=default;strokeWidth=2;" vertex="1" parent="1">
          <mxGeometry x="195" y="1085" width="85" height="40" as="geometry" />
        </mxCell>
        <mxCell id="PsptzhxLuVpVTfMJceMe-155" value="" style="shape=flexArrow;endArrow=classic;html=1;rounded=0;strokeWidth=2;" edge="1" parent="1">
          <mxGeometry width="50" height="50" relative="1" as="geometry">
            <mxPoint x="330" y="1105.33" as="sourcePoint" />
            <mxPoint x="490" y="1105" as="targetPoint" />
          </mxGeometry>
        </mxCell>
        <mxCell id="PsptzhxLuVpVTfMJceMe-167" value="" style="pointerEvents=1;verticalLabelPosition=bottom;shadow=0;dashed=0;align=center;html=1;verticalAlign=top;shape=mxgraph.electrical.resistors.resistor_2;rotation=90;strokeWidth=2;" vertex="1" parent="1">
          <mxGeometry x="532.5" y="1200" width="100" height="20" as="geometry" />
        </mxCell>
        <mxCell id="PsptzhxLuVpVTfMJceMe-170" value="$$r_d=\frac{kT}{qI_D}$$" style="text;html=1;align=center;verticalAlign=middle;whiteSpace=wrap;rounded=0;fontSize=16;" vertex="1" parent="1">
          <mxGeometry x="490" y="1195" width="60" height="30" as="geometry" />
        </mxCell>
        <mxCell id="PsptzhxLuVpVTfMJceMe-171" value="$$\overline{i^2}$$" style="text;html=1;align=center;verticalAlign=middle;whiteSpace=wrap;rounded=0;fontSize=16;" vertex="1" parent="1">
          <mxGeometry x="690" y="1195" width="60" height="30" as="geometry" />
        </mxCell>
        <mxCell id="PsptzhxLuVpVTfMJceMe-172" value="" style="pointerEvents=1;verticalLabelPosition=bottom;shadow=0;dashed=0;align=center;html=1;verticalAlign=top;shape=mxgraph.electrical.signal_sources.source;aspect=fixed;points=[[0.5,0,0],[1,0.5,0],[0.5,1,0],[0,0.5,0]];elSignalType=dc1;rotation=-90;strokeWidth=2;" vertex="1" parent="1">
          <mxGeometry x="657.5" y="1190" width="40" height="40" as="geometry" />
        </mxCell>
        <mxCell id="PsptzhxLuVpVTfMJceMe-173" style="edgeStyle=orthogonalEdgeStyle;rounded=0;orthogonalLoop=1;jettySize=auto;html=1;exitX=1;exitY=0.5;exitDx=0;exitDy=0;exitPerimeter=0;entryX=0;entryY=0.5;entryDx=0;entryDy=0;entryPerimeter=0;endArrow=none;endFill=0;strokeWidth=2;" edge="1" parent="1" source="PsptzhxLuVpVTfMJceMe-172" target="PsptzhxLuVpVTfMJceMe-167">
          <mxGeometry relative="1" as="geometry">
            <Array as="points">
              <mxPoint x="677.5" y="1150" />
              <mxPoint x="582.5" y="1150" />
            </Array>
          </mxGeometry>
        </mxCell>
        <mxCell id="PsptzhxLuVpVTfMJceMe-174" style="edgeStyle=orthogonalEdgeStyle;rounded=0;orthogonalLoop=1;jettySize=auto;html=1;exitX=0;exitY=0.5;exitDx=0;exitDy=0;exitPerimeter=0;entryX=1;entryY=0.5;entryDx=0;entryDy=0;entryPerimeter=0;endArrow=none;endFill=0;strokeWidth=2;" edge="1" parent="1" source="PsptzhxLuVpVTfMJceMe-172" target="PsptzhxLuVpVTfMJceMe-167">
          <mxGeometry relative="1" as="geometry">
            <Array as="points">
              <mxPoint x="678" y="1270" />
              <mxPoint x="583" y="1270" />
            </Array>
          </mxGeometry>
        </mxCell>
        <mxCell id="PsptzhxLuVpVTfMJceMe-175" value="" style="edgeStyle=orthogonalEdgeStyle;rounded=0;orthogonalLoop=1;jettySize=auto;html=1;exitX=1;exitY=0.5;exitDx=0;exitDy=0;exitPerimeter=0;entryX=0.5;entryY=0;entryDx=0;entryDy=0;entryPerimeter=0;endArrow=none;endFill=0;strokeWidth=2;" edge="1" parent="1" source="PsptzhxLuVpVTfMJceMe-167" target="PsptzhxLuVpVTfMJceMe-176">
          <mxGeometry relative="1" as="geometry">
            <mxPoint x="582.5" y="1290" as="targetPoint" />
            <mxPoint x="582.5" y="1260" as="sourcePoint" />
            <Array as="points">
              <mxPoint x="582" y="1270" />
              <mxPoint x="630" y="1270" />
            </Array>
          </mxGeometry>
        </mxCell>
        <mxCell id="PsptzhxLuVpVTfMJceMe-179" style="edgeStyle=orthogonalEdgeStyle;rounded=0;orthogonalLoop=1;jettySize=auto;html=1;exitX=0.5;exitY=0;exitDx=0;exitDy=0;" edge="1" parent="1" source="PsptzhxLuVpVTfMJceMe-176">
          <mxGeometry relative="1" as="geometry">
            <mxPoint x="629.608695652174" y="1299.9565217391305" as="targetPoint" />
          </mxGeometry>
        </mxCell>
        <mxCell id="PsptzhxLuVpVTfMJceMe-176" value="" style="ellipse;whiteSpace=wrap;html=1;aspect=fixed;strokeWidth=2;" vertex="1" parent="1">
          <mxGeometry x="625" y="1290" width="10" height="10" as="geometry" />
        </mxCell>
        <mxCell id="PsptzhxLuVpVTfMJceMe-177" value="" style="ellipse;whiteSpace=wrap;html=1;aspect=fixed;strokeWidth=2;" vertex="1" parent="1">
          <mxGeometry x="625" y="930" width="10" height="10" as="geometry" />
        </mxCell>
        <mxCell id="PsptzhxLuVpVTfMJceMe-181" value="" style="pointerEvents=1;verticalLabelPosition=bottom;shadow=0;dashed=0;align=center;html=1;verticalAlign=top;shape=mxgraph.electrical.resistors.resistor_2;rotation=90;strokeWidth=2;" vertex="1" parent="1">
          <mxGeometry x="580" y="980" width="100" height="20" as="geometry" />
        </mxCell>
        <mxCell id="PsptzhxLuVpVTfMJceMe-182" value="" style="pointerEvents=1;verticalLabelPosition=bottom;shadow=0;dashed=0;align=center;html=1;verticalAlign=top;shape=mxgraph.electrical.signal_sources.source;aspect=fixed;points=[[0.5,0,0],[1,0.5,0],[0.5,1,0],[0,0.5,0]];elSignalType=ac;strokeWidth=2;" vertex="1" parent="1">
          <mxGeometry x="610" y="1070" width="40" height="40" as="geometry" />
        </mxCell>
        <mxCell id="PsptzhxLuVpVTfMJceMe-183" style="edgeStyle=orthogonalEdgeStyle;rounded=0;orthogonalLoop=1;jettySize=auto;html=1;exitX=0.5;exitY=1;exitDx=0;exitDy=0;exitPerimeter=0;entryX=0;entryY=0.5;entryDx=0;entryDy=0;entryPerimeter=0;strokeWidth=2;endArrow=none;endFill=0;" edge="1" parent="1" source="PsptzhxLuVpVTfMJceMe-182" target="PsptzhxLuVpVTfMJceMe-167">
          <mxGeometry relative="1" as="geometry">
            <Array as="points">
              <mxPoint x="630" y="1150" />
              <mxPoint x="582" y="1150" />
            </Array>
          </mxGeometry>
        </mxCell>
        <mxCell id="PsptzhxLuVpVTfMJceMe-184" style="edgeStyle=orthogonalEdgeStyle;rounded=0;orthogonalLoop=1;jettySize=auto;html=1;exitX=0.5;exitY=0;exitDx=0;exitDy=0;exitPerimeter=0;entryX=1;entryY=0.5;entryDx=0;entryDy=0;entryPerimeter=0;strokeWidth=2;endArrow=none;endFill=0;" edge="1" parent="1" source="PsptzhxLuVpVTfMJceMe-182" target="PsptzhxLuVpVTfMJceMe-181">
          <mxGeometry relative="1" as="geometry" />
        </mxCell>
        <mxCell id="PsptzhxLuVpVTfMJceMe-186" value="$$\overline{v_s^2}$$" style="text;html=1;align=center;verticalAlign=middle;whiteSpace=wrap;rounded=0;fontSize=16;" vertex="1" parent="1">
          <mxGeometry x="650" y="1075" width="60" height="30" as="geometry" />
        </mxCell>
        <mxCell id="PsptzhxLuVpVTfMJceMe-187" value="$$r_s$$" style="text;html=1;align=center;verticalAlign=middle;whiteSpace=wrap;rounded=0;fontSize=16;" vertex="1" parent="1">
          <mxGeometry x="635" y="970" width="60" height="30" as="geometry" />
        </mxCell>
        <mxCell id="PsptzhxLuVpVTfMJceMe-188" value="" style="endArrow=classic;html=1;rounded=0;" edge="1" parent="1">
          <mxGeometry width="50" height="50" relative="1" as="geometry">
            <mxPoint x="264.57" y="1010" as="sourcePoint" />
            <mxPoint x="264.57" y="1060" as="targetPoint" />
          </mxGeometry>
        </mxCell>
        <mxCell id="PsptzhxLuVpVTfMJceMe-189" value="$$I_D$$" style="text;html=1;align=center;verticalAlign=middle;whiteSpace=wrap;rounded=0;fontSize=16;" vertex="1" parent="1">
          <mxGeometry x="235" y="980" width="60" height="30" as="geometry" />
        </mxCell>
        <mxCell id="PsptzhxLuVpVTfMJceMe-190" value="" style="endArrow=classic;html=1;rounded=0;" edge="1" parent="1">
          <mxGeometry width="50" height="50" relative="1" as="geometry">
            <mxPoint x="730" y="1030" as="sourcePoint" />
            <mxPoint x="730" y="1160" as="targetPoint" />
          </mxGeometry>
        </mxCell>
        <mxCell id="PsptzhxLuVpVTfMJceMe-191" value="$$I_D$$" style="text;html=1;align=center;verticalAlign=middle;whiteSpace=wrap;rounded=0;fontSize=16;" vertex="1" parent="1">
          <mxGeometry x="720" y="1075" width="60" height="30" as="geometry" />
        </mxCell>
        <mxCell id="PsptzhxLuVpVTfMJceMe-192" value="" style="pointerEvents=1;verticalLabelPosition=bottom;shadow=0;dashed=0;align=center;html=1;verticalAlign=top;shape=mxgraph.electrical.resistors.resistor_2;rotation=0;strokeWidth=2;" vertex="1" parent="1">
          <mxGeometry x="940" y="1020" width="100" height="20" as="geometry" />
        </mxCell>
        <mxCell id="PsptzhxLuVpVTfMJceMe-193" value="" style="pointerEvents=1;verticalLabelPosition=bottom;shadow=0;dashed=0;align=center;html=1;verticalAlign=top;shape=mxgraph.electrical.signal_sources.source;aspect=fixed;points=[[0.5,0,0],[1,0.5,0],[0.5,1,0],[0,0.5,0]];elSignalType=ac;strokeWidth=2;rotation=0;" vertex="1" parent="1">
          <mxGeometry x="1040" y="1010" width="40" height="40" as="geometry" />
        </mxCell>
        <mxCell id="PsptzhxLuVpVTfMJceMe-194" value="" style="pointerEvents=1;verticalLabelPosition=bottom;shadow=0;dashed=0;align=center;html=1;verticalAlign=top;shape=mxgraph.electrical.signal_sources.source;aspect=fixed;points=[[0.5,0,0],[1,0.5,0],[0.5,1,0],[0,0.5,0]];elSignalType=dc1;rotation=-90;strokeWidth=2;" vertex="1" parent="1">
          <mxGeometry x="1100" y="1100" width="40" height="40" as="geometry" />
        </mxCell>
        <mxCell id="PsptzhxLuVpVTfMJceMe-195" value="" style="pointerEvents=1;verticalLabelPosition=bottom;shadow=0;dashed=0;align=center;html=1;verticalAlign=top;shape=mxgraph.electrical.resistors.resistor_2;rotation=90;strokeWidth=2;" vertex="1" parent="1">
          <mxGeometry x="1170" y="1105" width="100" height="20" as="geometry" />
        </mxCell>
      </root>
    </mxGraphModel>
  </diagram>
</mxfile>
